# xmcd
#
# Track frame offsets: 
#        150
#        23382
#        47542
#        69433
#        89650
#        110055
#        132044
#
# Disc length: 1977 seconds
#
# Revision: 0
# Processed by: cddbd v1.5.2PL0 Copyright (c) Steve Scherf et al.
# Submitted via: ExactAudioCopy v1.0b3
#
DISCID=5307b707
DTITLE=Ласковый Май - Второй альбом
DYEAR=1988
DGENRE=Freestyle
TTITLE0=Я так жду
TTITLE1=Лето обещало нам любовь 
TTITLE2=Цветы
TTITLE3=Желаю счастья
TTITLE4=Еще не скоро до весны
TTITLE5=Обещаю новый вечер
TTITLE6=Интро-медляк
EXTD=
EXTT0=
EXTT1=
EXTT2=
EXTT3=
EXTT4=
EXTT5=
EXTT6=
PLAYORDER=
